<?xml version="1.0" encoding="UTF-8"?>
<svg id="Calque_2" data-name="Calque 2" xmlns="http://www.w3.org/2000/svg" viewBox="0 0 150.2 105.37">
  <defs>
    <style>
      .cls-1 {
        fill: #fff;
      }
    </style>
  </defs>
  <g id="Calque_1-2" data-name="Calque 1">
    <g>
      <path class="cls-1" d="M78.9,0v8.16h0c35.17,0,43.6,1.17,34.39,17.67l-35.64,68.99-33.95-59.12c-.98-1.97-2.39-3.62-4.07-4.88h12.66v-2.72H16.89v2.72h14.52c4.2,0,7.99,2.34,9.87,6.1l38.87,68.45,35.96-68.33c7.88-15.76,14.54-27.69,34.09-28.88V0h-71.3Z"/>
      <path class="cls-1" d="M62.01,0v8.16h0c35.17,0,43.6,1.17,34.39,17.67l-35.64,68.99L26.82,35.7c-.98-1.97-2.39-3.62-4.07-4.88h12.66v-2.72H0v2.72h14.52c4.2,0,7.99,2.34,9.87,6.1l38.87,68.45,35.96-68.33c7.88-15.76,14.54-27.69,34.09-28.88V0H62.01Z"/>
    </g>
  </g>
</svg>
